<svg width="22.880249" height="23.919922" viewBox="0 0 22.8802 23.9199" fill="none" xmlns="http://www.w3.org/2000/svg" xmlns:xlink="http://www.w3.org/1999/xlink">
	<desc>
			Created with Pixso.
	</desc>
	<defs/>
	<path id="path" d="M11.0085 0C10.0533 0 9.27075 0.78125 9.2406 1.76367L8.99255 9.94922L7.70862 3.61816C7.51367 2.65625 6.61145 2.02734 5.67078 2.19727L5.5636 2.2168C4.62341 2.3877 3.98438 3.2959 4.12061 4.26953L5.2074 12.0205L3.52734 7.75C3.17004 6.84082 2.17847 6.38672 1.28345 6.72168L1.16394 6.7666C0.270508 7.10156 -0.205811 8.10352 0.0854492 9.03516L3.37854 19.5684C3.88037 20.8145 4.10034 21.7197 5.92969 22.9766C7.75903 24.2324 13.1681 24.4854 15.7026 22.1621C16.6256 21.3154 17.9412 19.7217 18.6494 18.6504L22.5078 13.3301C23.1017 12.5117 22.9722 11.3584 22.2125 10.7012C22.0317 10.5439 21.8279 10.4277 21.6008 10.3506C21.3737 10.2744 21.1406 10.2441 20.9016 10.2598C20.6625 10.2764 20.4354 10.3369 20.2206 10.4424C20.0056 10.5488 19.8191 10.6914 19.6608 10.8721L16.5991 14.2998L18.0042 4.26953C18.1404 3.2959 17.5018 2.3877 16.5612 2.2168L16.454 2.19727C15.5133 2.02637 14.6111 2.65527 14.4161 3.61816L13.1333 9.94922L12.8842 1.76367C12.8545 0.78125 12.0719 0 11.1167 0L11.0085 0Z" fill-rule="nonzero" fill="#FFFFFF"/>
</svg>
