<svg width="26.000000" height="21.666992" viewBox="0 0 26 21.667" fill="none" xmlns="http://www.w3.org/2000/svg" xmlns:xlink="http://www.w3.org/1999/xlink">
	<desc>
			Created with Pixso.
	</desc>
	<defs/>
	<path id="path" d="M13 11.917C12.8563 11.917 12.7181 11.8896 12.5854 11.835C12.4528 11.7793 12.3356 11.7012 12.234 11.5996C12.1324 11.498 12.0541 11.3809 11.9991 11.248C11.9442 11.1152 11.9166 10.9775 11.9166 10.834L11.9166 1.08398C11.9166 0.94043 11.9442 0.801758 11.9991 0.668945C12.0541 0.536133 12.1324 0.418945 12.234 0.317383C12.3356 0.21582 12.4528 0.137695 12.5854 0.0830078C12.7181 0.0273438 12.8563 0 13 0C13.1437 0 13.2819 0.0273438 13.4146 0.0830078C13.5472 0.137695 13.6644 0.21582 13.766 0.317383C13.8677 0.418945 13.9459 0.536133 14.0009 0.668945C14.0558 0.801758 14.0834 0.94043 14.0834 1.08398L14.0834 10.834C14.0834 10.9775 14.0558 11.1152 14.0009 11.248C13.9459 11.3809 13.8676 11.498 13.766 11.5996C13.6644 11.7012 13.5472 11.7793 13.4146 11.835C13.2819 11.8896 13.1437 11.917 13 11.917ZM18.4166 9.75C18.2729 9.75 18.1348 9.72266 18.0021 9.66797C17.8694 9.61328 17.7522 9.53418 17.6506 9.43262C17.5491 9.33105 17.4708 9.21387 17.4158 9.08203C17.3608 8.94922 17.3334 8.81055 17.3334 8.66699C17.3334 8.52344 17.3608 8.38477 17.4158 8.25195C17.4708 8.12012 17.5491 8.00293 17.6506 7.90137C17.7522 7.7998 17.8694 7.7207 18.0021 7.66602C18.1348 7.61133 18.2729 7.58398 18.4166 7.58398L20.5834 7.58398L20.5834 1.08398C20.5834 0.94043 20.6108 0.801758 20.6658 0.668945C20.7208 0.536133 20.7991 0.418945 20.9006 0.317383C21.0022 0.21582 21.1194 0.137695 21.2521 0.0830078C21.3848 0.0273438 21.5229 0 21.6666 0C21.8103 0 21.9485 0.0273438 22.0813 0.0830078C22.214 0.137695 22.3312 0.21582 22.4327 0.317383C22.5343 0.418945 22.6125 0.536133 22.6675 0.668945C22.7225 0.801758 22.75 0.94043 22.75 1.08398L22.75 7.58398L24.9166 7.58398C25.0603 7.58398 25.1985 7.61133 25.3313 7.66602C25.464 7.7207 25.5812 7.7998 25.6827 7.90137C25.7843 8.00293 25.8625 8.12012 25.9175 8.25195C25.9725 8.38477 26 8.52344 26 8.66699C26 8.81055 25.9725 8.94922 25.9175 9.08203C25.8625 9.21387 25.7843 9.33105 25.6827 9.43262C25.5812 9.53418 25.464 9.61328 25.3313 9.66797C25.1985 9.72266 25.0603 9.75 24.9166 9.75L18.4166 9.75ZM1.08337 7.58398C0.939697 7.58398 0.801514 7.55664 0.668823 7.50098C0.536011 7.44629 0.418945 7.36816 0.317261 7.2666C0.215698 7.16504 0.137451 7.04785 0.0825195 6.91504C0.0274658 6.78223 0 6.64355 0 6.5C0 6.35645 0.0274658 6.21875 0.0825195 6.08594C0.137451 5.95312 0.215698 5.83594 0.317261 5.73438C0.418945 5.63281 0.536011 5.55469 0.668823 5.49902C0.801514 5.44434 0.939697 5.41699 1.08337 5.41699L3.25 5.41699L3.25 1.08398C3.25 0.94043 3.27747 0.801758 3.33252 0.668945C3.38745 0.536133 3.4657 0.418945 3.56726 0.317383C3.66882 0.21582 3.78601 0.137695 3.9187 0.0830078C4.05151 0.0273438 4.1897 0 4.33337 0C4.47705 0 4.61523 0.0273438 4.74792 0.0830078C4.88062 0.137695 4.9978 0.21582 5.09937 0.317383C5.20093 0.418945 5.27917 0.536133 5.33423 0.668945C5.38916 0.801758 5.41663 0.94043 5.41663 1.08398L5.41663 5.41699L7.58337 5.41699C7.72705 5.41699 7.86523 5.44434 7.99792 5.49902C8.13062 5.55469 8.2478 5.63281 8.34937 5.73438C8.45093 5.83594 8.52917 5.95312 8.58423 6.08594C8.63916 6.21875 8.66663 6.35645 8.66663 6.5C8.66663 6.64355 8.63916 6.78223 8.58423 6.91504C8.52917 7.04785 8.45093 7.16504 8.34937 7.2666C8.2478 7.36816 8.13062 7.44629 7.99792 7.50098C7.86523 7.55664 7.72705 7.58398 7.58337 7.58398L1.08337 7.58398ZM4.33337 21.667C4.1897 21.667 4.05151 21.6396 3.91882 21.585C3.78601 21.5293 3.66895 21.4512 3.56726 21.3496C3.4657 21.248 3.38745 21.1309 3.33252 20.998C3.27747 20.8652 3.25 20.7275 3.25 20.584L3.25 10.834C3.25 10.6904 3.27747 10.5518 3.33252 10.4189C3.38745 10.2861 3.4657 10.1689 3.56726 10.0674C3.66895 9.96582 3.78601 9.8877 3.9187 9.83301C4.05151 9.77734 4.1897 9.75 4.33337 9.75C4.47705 9.75 4.61523 9.77734 4.74792 9.83301C4.88062 9.8877 4.9978 9.96582 5.09937 10.0674C5.20093 10.1689 5.27917 10.2861 5.33423 10.4189C5.38916 10.5518 5.41663 10.6904 5.41663 10.834L5.41663 20.584C5.41663 20.7275 5.38916 20.8652 5.33423 20.998C5.27917 21.1309 5.20093 21.248 5.09937 21.3496C4.9978 21.4512 4.88062 21.5293 4.74792 21.585C4.61523 21.6396 4.47705 21.667 4.33337 21.667ZM21.6666 21.667C21.5229 21.667 21.3848 21.6396 21.2521 21.585C21.1194 21.5293 21.0022 21.4512 20.9006 21.3496C20.7991 21.248 20.7208 21.1309 20.6658 20.998C20.6108 20.8652 20.5834 20.7275 20.5834 20.584L20.5834 13C20.5834 12.8564 20.6108 12.7188 20.6658 12.5859C20.7208 12.4531 20.7991 12.3359 20.9006 12.2344C21.0022 12.1328 21.1194 12.0547 21.2521 11.999C21.3848 11.9443 21.5229 11.917 21.6666 11.917C21.8103 11.917 21.9485 11.9443 22.0813 11.999C22.214 12.0547 22.3312 12.1328 22.4327 12.2344C22.5343 12.3359 22.6125 12.4531 22.6675 12.5859C22.7225 12.7188 22.75 12.8564 22.75 13L22.75 20.584C22.75 20.7275 22.7225 20.8652 22.6675 20.998C22.6125 21.1309 22.5343 21.248 22.4327 21.3496C22.3312 21.4512 22.214 21.5293 22.0813 21.585C21.9485 21.6396 21.8103 21.667 21.6666 21.667ZM13 21.667C12.8563 21.667 12.7181 21.6396 12.5854 21.585C12.4528 21.5293 12.3356 21.4512 12.234 21.3496C12.1324 21.248 12.0541 21.1309 11.9991 20.998C11.9442 20.8652 11.9166 20.7275 11.9166 20.584L11.9166 16.25L9.75 16.25C9.60632 16.25 9.46814 16.2227 9.33545 16.168C9.20276 16.1133 9.08557 16.0342 8.98401 15.9326C8.88232 15.8311 8.80408 15.7139 8.74915 15.582C8.69421 15.4492 8.66663 15.3105 8.66663 15.167C8.66663 15.0234 8.69421 14.8848 8.74915 14.752C8.80408 14.6201 8.88232 14.5029 8.98401 14.4014C9.08557 14.2998 9.20276 14.2207 9.33545 14.166C9.46814 14.1113 9.60632 14.084 9.75 14.084L16.25 14.084C16.3937 14.084 16.5319 14.1113 16.6646 14.166C16.7972 14.2207 16.9144 14.2998 17.016 14.4014C17.1177 14.5029 17.1959 14.6201 17.2509 14.752C17.3058 14.8848 17.3334 15.0234 17.3334 15.167C17.3334 15.3105 17.3058 15.4492 17.2509 15.582C17.1959 15.7139 17.1177 15.8311 17.016 15.9326C16.9144 16.0342 16.7972 16.1133 16.6646 16.168C16.5319 16.2227 16.3937 16.25 16.25 16.25L14.0834 16.25L14.0834 20.584C14.0834 20.7275 14.0558 20.8652 14.0009 20.998C13.9459 21.1309 13.8676 21.248 13.766 21.3496C13.6644 21.4512 13.5472 21.5293 13.4146 21.585C13.2819 21.6396 13.1437 21.667 13 21.667Z" fill-rule="nonzero" fill="#FFFFFF"/>
</svg>
