<svg width="26.000000" height="26.000000" viewBox="0 0 26 26" fill="none" xmlns="http://www.w3.org/2000/svg" xmlns:xlink="http://www.w3.org/1999/xlink">
	<desc>
			Created with Pixso.
	</desc>
	<defs>
		<clipPath id="clip5_1">
			<rect id="预设" width="26.000000" height="26.000000" fill="white"/>
		</clipPath>
	</defs>
	<g clip-path="url(#clip5_1)">
		<path id="path" d="M0.972656 11.0957L10.8085 1.25977C10.91 1.1582 11.0326 1.10742 11.1761 1.10742C11.3198 1.10742 11.4424 1.1582 11.5439 1.25977L18.4106 8.12598L7.83936 18.6973L0.972778 11.8311C0.871216 11.7295 0.820435 11.6064 0.820435 11.4629C0.820435 11.3193 0.871094 11.1973 0.972656 11.0957ZM21.1024 11.5488L11.2666 21.3848C11.165 21.4863 11.0425 21.5371 10.8989 21.5371C10.7552 21.5371 10.6327 21.4863 10.5312 21.3848L8.67346 19.5273L19.2448 8.95605L21.1024 10.8135C21.204 10.915 21.2548 11.0371 21.2548 11.1807C21.2548 11.3252 21.204 11.4473 21.1024 11.5488Z" fill-rule="nonzero" fill="#FFFFFF"/>
		<path id="path" d="M18.9657 13.6855C18.9305 13.7988 17.1301 15.8867 19.0957 17.7324C20.1199 18.6807 21.2456 19.4863 22.4731 20.1504L22.4978 20.167L22.5251 20.1787C23.5651 20.668 24.2853 21.1699 24.5791 21.4482C25.3942 22.2148 25.3824 23.4893 24.5492 24.2871C23.7159 25.085 22.3717 25.1123 21.5592 24.3457C21.2628 24.0684 20.7258 23.3955 20.1993 22.4102L20.1838 22.3838L20.1694 22.3604C19.446 21.1924 18.5868 20.1348 17.5916 19.1875C15.626 17.3398 14.0543 18.667 13.9607 18.6992L18.9657 13.6855Z" fill-rule="nonzero" fill="#FFFFFF"/>
	</g>
</svg>
