<svg width="26.000000" height="26.000000" viewBox="0 0 26 26" fill="none" xmlns="http://www.w3.org/2000/svg" xmlns:xlink="http://www.w3.org/1999/xlink">
	<desc>
			Created with Pixso.
	</desc>
	<defs>
		<clipPath id="clip2_105">
			<rect id="缩放" width="26.000000" height="26.000000" fill="white"/>
		</clipPath>
	</defs>
	<g clip-path="url(#clip2_105)">
		<path id="path" d="M19.5759 16.1807C19.9535 16.541 20.3716 16.9287 20.7761 17.332C22.2455 18.7939 23.7113 20.2617 25.1754 21.7295C26.23 22.7852 26.2773 24.2754 25.2922 25.2705C24.2987 26.2764 22.7938 26.2285 21.7207 25.1572C19.9469 23.3828 18.1677 21.6123 16.4022 19.8281C16.182 19.6064 16.0416 19.5918 15.7625 19.7441C9.44861 23.2227 1.82629 19.7812 0.24707 12.748C-1.03101 7.05664 2.78601 1.3291 8.61072 0.198242C14.6096 -0.964844 20.4122 3.33301 21.0555 9.40332C21.2975 11.6885 20.8473 13.8193 19.7166 15.8135C19.6792 15.8789 19.642 15.9434 19.6099 16.0117C19.5979 16.0381 19.5979 16.0684 19.5759 16.1807ZM10.5471 17.873C14.635 17.8428 17.8986 14.5771 17.88 10.5332C17.8615 6.49316 14.537 3.22559 10.4811 3.25781C6.47107 3.29199 3.24292 6.6084 3.26489 10.6689C3.2854 14.6006 6.62329 17.9033 10.5471 17.873Z" fill-rule="nonzero" fill="#FFFFFF"/>
		<path id="path" d="M4.90356 10.542C4.90857 7.18848 7.79651 4.79688 10.5505 4.91895C10.5574 5.04688 10.5709 5.17969 10.5709 5.30957C10.5743 5.69727 10.5726 6.08496 10.5726 6.46777C7.93201 6.69629 6.60986 8.48828 6.48474 10.542L4.90356 10.542Z" fill-rule="nonzero" fill="#FFFFFF"/>
	</g>
</svg>
