<svg width="30.647217" height="32.373047" viewBox="0 0 30.6472 32.373" fill="none" xmlns="http://www.w3.org/2000/svg" xmlns:xlink="http://www.w3.org/1999/xlink">
	<desc>
			Created with Pixso.
	</desc>
	<defs/>
	<path id="形状" d="M30.2428 20.3008L27.8761 18.2773C27.9882 17.5908 28.046 16.8906 28.046 16.1895C28.046 15.4883 27.9882 14.7871 27.8761 14.1006L30.2428 12.0771C30.6078 11.7666 30.7415 11.2607 30.5789 10.8057L30.5464 10.7119C29.8923 8.88672 28.924 7.20996 27.6666 5.72852L27.6016 5.65332C27.2908 5.28809 26.7886 5.15039 26.3333 5.30957L23.3956 6.35352C22.3116 5.46484 21.1012 4.76367 19.7932 4.27246L19.226 1.20117C19.1393 0.728516 18.7671 0.359375 18.2937 0.272461L18.1962 0.254883C16.3136 -0.0849609 14.3336 -0.0849609 12.451 0.254883L12.3535 0.272461C11.8801 0.359375 11.5079 0.728516 11.4213 1.20117L10.8503 4.28711C9.55322 4.77832 8.34998 5.47559 7.27319 6.36133L4.31396 5.30957C3.8623 5.15039 3.35645 5.28418 3.04565 5.65332L2.98059 5.72852C1.72327 7.21387 0.754883 8.89062 0.10083 10.7119L0.0683594 10.8057C-0.0942383 11.2568 0.0394287 11.7627 0.404419 12.0771L2.79993 14.1221C2.68799 14.8018 2.63379 15.4951 2.63379 16.1855C2.63379 16.8799 2.68799 17.5732 2.79993 18.249L0.404419 20.2939C0.0394287 20.6045 -0.0942383 21.1104 0.0683594 21.5654L0.10083 21.6602C0.754883 23.4805 1.72327 25.1611 2.98059 26.6426L3.04565 26.7188C3.35645 27.083 3.85864 27.2207 4.31396 27.0615L7.27319 26.0098C8.34998 26.8955 9.55322 27.5967 10.8503 28.084L11.4213 31.1699C11.5079 31.6436 11.8801 32.0117 12.3535 32.0986L12.451 32.1162C13.3942 32.2861 14.3589 32.373 15.3236 32.373C16.2883 32.373 17.2567 32.2861 18.1962 32.1162L18.2937 32.0986C18.7671 32.0117 19.1393 31.6436 19.226 31.1699L19.7932 28.0986C21.1012 27.6074 22.3116 26.9102 23.3956 26.0176L26.3333 27.0615C26.7849 27.2207 27.2908 27.0869 27.6016 26.7188L27.6666 26.6426C28.924 25.1572 29.8923 23.4805 30.5464 21.6602L30.5789 21.5654C30.7415 21.1211 30.6078 20.6152 30.2428 20.3008ZM25.4442 16.1924C25.4442 15.6328 25.3972 15.0723 25.3069 14.5273L25.072 13.085L27.7711 10.7764C27.3593 9.83691 26.8461 8.94434 26.2318 8.11719L22.8788 9.30566L21.7441 8.37402C20.8806 7.66504 19.9159 7.10938 18.8788 6.71875L17.5022 6.20215L16.8553 2.69727C15.8364 2.58105 14.7994 2.58105 13.7841 2.69727L13.1373 6.20898L11.7679 6.72559C10.7382 7.11621 9.78064 7.67285 8.92419 8.37695L7.78967 9.31348L4.41492 8.11328C3.80066 8.94043 3.28394 9.83008 2.87561 10.7725L5.60364 13.1035L5.36877 14.5488C5.27844 15.0869 5.23511 15.6396 5.23511 16.1924C5.23511 16.7422 5.2821 17.2988 5.36877 17.8369L5.60364 19.2822L2.87561 21.6123C3.28748 22.5518 3.80066 23.4443 4.41492 24.2725L7.78967 23.0723L8.92419 24.0078C9.78064 24.7129 10.7382 25.2695 11.7679 25.6592L13.1337 26.1836L13.7805 29.6953C14.7994 29.8115 15.8364 29.8115 16.8518 29.6953L17.4985 26.1904L18.8752 25.6738C19.9159 25.2842 20.877 24.7275 21.7406 24.0195L22.8751 23.0869L26.2283 24.2754C26.8425 23.4482 27.3593 22.5596 27.7675 21.6162L25.0684 19.3076L25.3069 17.8584C25.3972 17.3125 25.4442 16.7529 25.4442 16.1924ZM15.3234 9.47266C11.8113 9.47266 8.96399 12.3203 8.96399 15.832C8.96399 19.3438 11.8113 22.1914 15.3234 22.1914C18.8354 22.1914 21.6827 19.3438 21.6827 15.832C21.6827 12.3203 18.8354 9.47266 15.3234 9.47266ZM15.3234 19.8789C16.4037 19.8789 17.4191 19.4561 18.1851 18.6934C18.9475 17.9277 19.3702 16.9121 19.3702 15.832C19.3702 14.752 18.9475 13.7363 18.1851 12.9707C17.4191 12.2041 16.4037 11.7852 15.3234 11.7852C14.243 11.7852 13.2277 12.2041 12.4617 12.9707C11.6992 13.7363 11.2765 14.752 11.2765 15.832C11.2765 16.9121 11.6992 17.9277 12.4617 18.6934C13.2277 19.4561 14.243 19.8789 15.3234 19.8789Z" clip-rule="evenodd" fill-rule="evenodd" fill="#FFFFFF" fill-opacity="1.000000"/>
</svg>
